<svg width="241" height="204" viewBox="0 0 241 204" fill="none" xmlns="http://www.w3.org/2000/svg">
<g filter="url(#filter0_dd)">
<rect x="40" y="10.4419" width="161" height="123.558" rx="6" fill="white"/>
<rect x="88.6744" y="21.6744" width="62.4031" height="9.9845" rx="4" fill="#78909C"/>
<rect opacity="0.1" x="52.4806" y="45.3876" width="16.2248" height="16.2248" rx="3.74419" fill="#919699"/>
<rect opacity="0.1" x="72.4496" y="45.3876" width="16.2248" height="16.2248" rx="3.74419" fill="#919699"/>
<rect opacity="0.5" x="92.4186" y="45.3876" width="16.2248" height="16.2248" rx="2.49612" fill="#C6CACC"/>
<rect opacity="0.5" x="112.388" y="45.3876" width="16.2248" height="16.2248" rx="2.49612" fill="#C6CACC"/>
<rect opacity="0.5" x="132.357" y="45.3876" width="16.2248" height="16.2248" rx="2.49612" fill="#C6CACC"/>
<rect opacity="0.5" x="152.326" y="45.3876" width="16.2248" height="16.2248" rx="2.49612" fill="#C6CACC"/>
<rect opacity="0.5" x="172.295" y="45.3876" width="16.2248" height="16.2248" rx="2.49612" fill="#C6CACC"/>
<rect opacity="0.5" x="52.4806" y="65.3566" width="16.2248" height="16.2248" rx="2.49612" fill="#C6CACC"/>
<rect opacity="0.5" x="72.4496" y="65.3566" width="16.2248" height="16.2248" rx="2.49612" fill="#C6CACC"/>
<rect opacity="0.5" x="92.4186" y="65.3566" width="16.2248" height="16.2248" rx="2.49612" fill="#C6CACC"/>
<rect opacity="0.5" x="112.388" y="65.3566" width="16.2248" height="16.2248" rx="2.49612" fill="#C6CACC"/>
<rect opacity="0.5" x="132.357" y="65.3566" width="16.2248" height="16.2248" rx="2.49612" fill="#C6CACC"/>
<rect opacity="0.5" x="152.326" y="65.3566" width="16.2248" height="16.2248" rx="2.49612" fill="#C6CACC"/>
<rect opacity="0.5" x="172.295" y="65.3566" width="16.2248" height="16.2248" rx="2.49612" fill="#C6CACC"/>
<rect opacity="0.5" x="52.4806" y="85.3256" width="16.2248" height="16.2248" rx="2.49612" fill="#C6CACC"/>
<rect opacity="0.5" x="72.4496" y="85.3256" width="16.2248" height="16.2248" rx="2.49612" fill="#C6CACC"/>
<rect opacity="0.5" x="92.4186" y="85.3256" width="16.2248" height="16.2248" rx="2.49612" fill="#C6CACC"/>
<rect x="112.388" y="85.3256" width="16.2248" height="16.2248" rx="3.74419" fill="#367BF5"/>
<rect opacity="0.5" x="132.357" y="85.3256" width="16.2248" height="16.2248" rx="2.49612" fill="#C6CACC"/>
<rect opacity="0.5" x="152.326" y="85.3256" width="16.2248" height="16.2248" rx="2.49612" fill="#C6CACC"/>
<rect opacity="0.5" x="172.295" y="85.3256" width="16.2248" height="16.2248" rx="2.49612" fill="#C6CACC"/>
<rect opacity="0.5" x="52.4806" y="105.295" width="16.2248" height="16.2248" rx="2.49612" fill="#C6CACC"/>
<rect opacity="0.5" x="72.4496" y="105.295" width="16.2248" height="16.2248" rx="2.49612" fill="#C6CACC"/>
<rect opacity="0.5" x="92.4186" y="105.295" width="16.2248" height="16.2248" rx="2.49612" fill="#C6CACC"/>
<rect opacity="0.5" x="112.388" y="105.295" width="16.2248" height="16.2248" rx="2.49612" fill="#C6CACC"/>
<rect opacity="0.5" x="132.357" y="105.295" width="16.2248" height="16.2248" rx="2.49612" fill="#C6CACC"/>
<rect opacity="0.1" x="152.326" y="105.295" width="16.2248" height="16.2248" rx="3.74419" fill="#919699"/>
<rect opacity="0.1" x="172.295" y="105.295" width="16.2248" height="16.2248" rx="3.74419" fill="#919699"/>
<path fill-rule="evenodd" clip-rule="evenodd" d="M182.279 32.907L188.519 26.6667L182.279 20.4264L181.031 21.6744L186.023 26.6667L181.031 31.6589L182.279 32.907Z" fill="#367BF5"/>
<path fill-rule="evenodd" clip-rule="evenodd" d="M58.7209 32.907L52.4806 26.6667L58.7209 20.4264L59.969 21.6744L54.9767 26.6667L59.969 31.6589L58.7209 32.907Z" fill="#367BF5"/>
</g>
<defs>
<filter id="filter0_dd" x="0.0620155" y="0.457397" width="240.876" height="203.434" filterUnits="userSpaceOnUse" color-interpolation-filters="sRGB">
<feFlood flood-opacity="0" result="BackgroundImageFix"/>
<feColorMatrix in="SourceAlpha" type="matrix" values="0 0 0 0 0 0 0 0 0 0 0 0 0 0 0 0 0 0 127 0"/>
<feOffset dy="9.9845"/>
<feGaussianBlur stdDeviation="9.9845"/>
<feColorMatrix type="matrix" values="0 0 0 0 0.0295189 0 0 0 0 0.137798 0 0 0 0 0.187773 0 0 0 0.1 0"/>
<feBlend mode="multiply" in2="BackgroundImageFix" result="effect1_dropShadow"/>
<feColorMatrix in="SourceAlpha" type="matrix" values="0 0 0 0 0 0 0 0 0 0 0 0 0 0 0 0 0 0 127 0"/>
<feOffset dy="29.9535"/>
<feGaussianBlur stdDeviation="19.969"/>
<feColorMatrix type="matrix" values="0 0 0 0 0.0295189 0 0 0 0 0.137798 0 0 0 0 0.187773 0 0 0 0.06 0"/>
<feBlend mode="multiply" in2="effect1_dropShadow" result="effect2_dropShadow"/>
<feBlend mode="normal" in="SourceGraphic" in2="effect2_dropShadow" result="shape"/>
</filter>
</defs>
</svg>
