<svg width="24" height="19" viewBox="0 0 24 19" fill="none" xmlns="http://www.w3.org/2000/svg">
<path d="M19.3802 0.406981C18.9242 0.370981 18.4442 0.478981 18.0002 0.718981L7.62021 6.71898C6.46821 7.39098 6.08421 8.87898 6.74421 10.007L8.54421 13.115C9.20421 14.279 10.6682 14.663 11.8202 14.003L13.9802 12.755C14.3042 13.307 14.7842 13.751 15.3722 14.003V16.127C15.3722 17.435 16.4402 18.479 17.7722 18.479H24.0002V16.127H17.7722V14.003C18.8642 13.523 19.5722 12.443 19.5722 11.279C19.5722 10.727 19.4282 10.211 19.1642 9.75498L22.2002 8.00298C23.3642 7.33098 23.7602 5.87898 23.0882 4.71498L21.2882 1.60698C20.8802 0.886981 20.1482 0.478981 19.3802 0.406981ZM5.06421 10.283L0.000213623 11.123L0.900214 12.683L3.30021 16.835L4.20021 18.395L7.46421 14.435L5.06421 10.283Z" fill="#367BF5"/>
</svg>
