<svg width="72" height="72" viewBox="0 0 72 72" fill="none" xmlns="http://www.w3.org/2000/svg">
<rect width="72" height="72" rx="36" fill="#FCF3D7"/>
<path d="M27.0002 45.0002L32.7602 32.7602L45.0002 27.0002L39.2402 39.2402L27.0002 45.0002ZM36.0002 34.3802C35.5705 34.3802 35.1585 34.5509 34.8547 34.8547C34.5509 35.1585 34.3802 35.5706 34.3802 36.0002C34.3802 36.4299 34.5509 36.8419 34.8547 37.1457C35.1585 37.4495 35.5705 37.6202 36.0002 37.6202C36.4298 37.6202 36.8419 37.4495 37.1457 37.1457C37.4495 36.8419 37.6202 36.4299 37.6202 36.0002C37.6202 35.5706 37.4495 35.1585 37.1457 34.8547C36.8419 34.5509 36.4298 34.3802 36.0002 34.3802ZM36.0002 18.0002C38.364 18.0002 40.7046 18.4658 42.8885 19.3704C45.0723 20.275 47.0567 21.6008 48.7281 23.2723C50.3996 24.9437 51.7254 26.9281 52.63 29.1119C53.5346 31.2958 54.0002 33.6364 54.0002 36.0002C54.0002 40.7741 52.1038 45.3525 48.7281 48.7281C45.3524 52.1038 40.7741 54.0002 36.0002 54.0002C33.6364 54.0002 31.2957 53.5346 29.1119 52.63C26.928 51.7255 24.9437 50.3996 23.2723 48.7281C19.8966 45.3525 18.0002 40.7741 18.0002 36.0002C18.0002 31.2263 19.8966 26.6479 23.2723 23.2723C26.6479 19.8966 31.2263 18.0002 36.0002 18.0002ZM36.0002 21.6002C32.1811 21.6002 28.5184 23.1174 25.8178 25.8179C23.1173 28.5184 21.6002 32.1811 21.6002 36.0002C21.6002 39.8193 23.1173 43.482 25.8178 46.1826C28.5184 48.8831 32.1811 50.4002 36.0002 50.4002C39.8193 50.4002 43.482 48.8831 46.1825 46.1826C48.883 43.482 50.4002 39.8193 50.4002 36.0002C50.4002 32.1811 48.883 28.5184 46.1825 25.8179C43.482 23.1174 39.8193 21.6002 36.0002 21.6002Z" fill="#F3AA18"/>
</svg>
