<svg width="56" height="56" viewBox="0 0 56 56" fill="none" xmlns="http://www.w3.org/2000/svg">
<path d="M28 0C12.5562 0 0 12.5562 0 28C0 43.4437 12.5562 56 28 56C43.4437 56 56 43.4437 56 28C56 12.5562 43.4437 0 28 0Z" fill="#4267B2"/>
<path d="M30.6813 42.7209V29.6199H35.0788L35.7372 24.5142H30.6813V21.2543C30.6813 19.7761 31.0918 18.7687 33.2117 18.7687L35.9154 18.7674V14.201C35.4476 14.139 33.8428 14 31.9757 14C28.0776 14 25.4089 16.3793 25.4089 20.7489V24.5143H21V29.62H25.4088V42.7211L30.6813 42.7209Z" fill="white"/>
</svg>
