<svg width="140" height="142" viewBox="0 0 140 142" fill="none" xmlns="http://www.w3.org/2000/svg">
<path d="M112.167 28.1792C126.948 44.3449 140.484 63.8503 139.987 85.8783C139.525 107.906 124.993 132.421 105.133 139.598C85.272 146.811 60.0464 136.649 39.2263 124.072C18.4419 111.459 2.06297 96.3949 0.179931 80.3003C-1.66758 64.1701 11.0163 47.0451 24.2686 31.2347C37.5565 15.4243 51.4483 0.892882 66.4061 0.0401851C81.3638 -0.812512 97.3874 12.0135 112.167 28.1792Z" fill="#F7F9FA"/>
<path d="M94 40.1428H46C42.2129 40.1428 39.1429 43.2129 39.1429 47V95C39.1429 98.7871 42.2129 101.857 46 101.857H94C97.7871 101.857 100.857 98.7871 100.857 95V47C100.857 43.2129 97.7871 40.1428 94 40.1428Z" stroke="black" stroke-opacity="0.87" stroke-width="2" stroke-linecap="round" stroke-linejoin="round"/>
<path d="M39.1429 60.7142H100.857" stroke="black" stroke-opacity="0.87" stroke-width="2" stroke-linecap="round" stroke-linejoin="round"/>
<path d="M59.7143 101.857V60.7142" stroke="black" stroke-opacity="0.87" stroke-width="2" stroke-linecap="round" stroke-linejoin="round"/>
</svg>
