<svg width="140" height="140" viewBox="0 0 140 140" fill="none" xmlns="http://www.w3.org/2000/svg">
<path d="M127.663 23.6403C137.011 37.7856 135.89 57.8836 132.689 79.8056C129.52 101.696 124.27 125.378 109.288 134.883C94.3383 144.388 69.6569 139.683 49.7133 128.706C29.7697 117.729 14.5319 100.512 8.70569 79.7416C2.87947 59.0037 6.43283 34.7453 19.6539 19.7359C32.8749 4.72646 55.7316 -1.03409 77.0837 0.150026C98.4359 1.33414 118.315 9.52692 127.663 23.6403Z" fill="#F7F9FA"/>
<path d="M70 35.7142L35.7143 52.8571L70 69.9999L104.286 52.8571L70 35.7142Z" stroke="#3E4345" stroke-width="2" stroke-linecap="round" stroke-linejoin="round"/>
<path d="M35.7143 87.1428L70 104.286L104.286 87.1428" stroke="#3E4345" stroke-width="2" stroke-linecap="round" stroke-linejoin="round"/>
<path d="M35.7143 70L70 87.1429L104.286 70" stroke="#3E4345" stroke-width="2" stroke-linecap="round" stroke-linejoin="round"/>
</svg>
