<svg width="56" height="56" viewBox="0 0 56 56" fill="none" xmlns="http://www.w3.org/2000/svg">
<path d="M28 0C12.5562 0 0 12.5562 0 28C0 43.4437 12.5562 56 28 56C43.4437 56 56 43.4437 56 28C56 12.5562 43.4437 0 28 0Z" fill="#EA4335"/>
<path d="M14.009 27.508C13.722 19.9519 20.3405 12.9692 27.9042 12.8786C31.7592 12.5498 35.5097 14.0468 38.4271 16.4884C37.2303 17.8042 36.0127 19.1049 34.7121 20.3225C32.1437 18.7621 29.0515 17.573 26.0498 18.6291C21.2084 20.0077 18.2764 25.724 20.0681 30.4602C21.5518 35.4068 27.5684 38.1215 32.2837 36.0435C34.7254 35.1692 36.3352 32.9164 37.0415 30.4957C34.2432 30.44 31.4443 30.4748 28.646 30.3975C28.6391 28.7326 28.6321 27.074 28.6391 25.4091C33.3056 25.4021 37.9792 25.3882 42.6527 25.43C42.9397 29.5093 42.3378 33.8749 39.6859 37.149C36.0545 41.8226 29.3454 43.1941 23.8876 41.3607C18.0953 39.4582 13.8829 33.6228 14.009 27.508Z" fill="white"/>
</svg>
