<svg width="56" height="56" viewBox="0 0 56 56" fill="none" xmlns="http://www.w3.org/2000/svg">
<path d="M28 0C12.544 0 0 12.544 0 28C0 43.456 12.544 56 28 56C43.456 56 56 43.456 56 28C56 12.544 43.456 0 28 0Z" fill="#78909C"/>
<path d="M22.9755 27.4621C22.9755 24.9839 24.984 22.9744 27.4622 22.9744C29.9404 22.9744 31.9499 24.9839 31.9499 27.4621C31.9499 29.9403 29.9404 31.9498 27.4622 31.9498C24.984 31.9498 22.9755 29.9403 22.9755 27.4621ZM20.5496 27.4621C20.5496 31.2799 23.6443 34.3747 27.4622 34.3747C31.28 34.3747 34.3748 31.2799 34.3748 27.4621C34.3748 23.6442 31.28 20.5495 27.4622 20.5495C23.6443 20.5495 20.5496 23.6442 20.5496 27.4621ZM33.033 20.2754C33.0329 20.5949 33.1275 20.9072 33.3049 21.173C33.4823 21.4387 33.7345 21.6459 34.0297 21.7683C34.3248 21.8906 34.6496 21.9228 34.963 21.8606C35.2764 21.7983 35.5643 21.6446 35.7903 21.4188C36.0163 21.1929 36.1703 20.9052 36.2327 20.5918C36.2952 20.2785 36.2633 19.9536 36.1412 19.6584C36.019 19.3632 35.8121 19.1108 35.5465 18.9332C35.2809 18.7556 34.9686 18.6607 34.6491 18.6606H34.6485C34.2202 18.6608 33.8095 18.8309 33.5066 19.1337C33.2037 19.4365 33.0334 19.8471 33.033 20.2754ZM22.0235 38.4199C20.711 38.3601 19.9976 38.1415 19.5235 37.9568C18.895 37.7121 18.4466 37.4207 17.9751 36.9498C17.5036 36.479 17.2117 36.031 16.9681 35.4024C16.7833 34.9286 16.5647 34.215 16.505 32.9025C16.4398 31.4835 16.4267 31.0572 16.4267 27.4622C16.4267 23.8672 16.4408 23.4421 16.505 22.0219C16.5648 20.7094 16.785 19.9972 16.9681 19.5219C17.2128 18.8934 17.5042 18.445 17.9751 17.9735C18.4459 17.502 18.8939 17.2101 19.5235 16.9665C19.9974 16.7817 20.711 16.5631 22.0235 16.5034C23.4425 16.4381 23.8688 16.4251 27.4622 16.4251C31.0556 16.4251 31.4823 16.4392 32.9025 16.5034C34.215 16.5632 34.9272 16.7834 35.4024 16.9665C36.031 17.2101 36.4794 17.5026 36.9509 17.9735C37.4224 18.4443 37.7132 18.8934 37.9579 19.5219C38.1427 19.9958 38.3613 20.7094 38.421 22.0219C38.4862 23.4421 38.4993 23.8672 38.4993 27.4622C38.4993 31.0572 38.4862 31.4823 38.421 32.9025C38.3612 34.215 38.1415 34.9284 37.9579 35.4024C37.7132 36.031 37.4218 36.4794 36.9509 36.9498C36.4801 37.4202 36.031 37.7121 35.4024 37.9568C34.9286 38.1416 34.215 38.3602 32.9025 38.4199C31.4835 38.4852 31.0572 38.4982 27.4622 38.4982C23.8672 38.4982 23.4421 38.4852 22.0235 38.4199ZM21.912 14.0815C20.4789 14.1468 19.4996 14.374 18.6444 14.7068C17.7587 15.0505 17.0089 15.5115 16.2597 16.2596C15.5104 17.0076 15.0506 17.7586 14.7069 18.6443C14.3741 19.5001 14.1469 20.4788 14.0816 21.9119C14.0153 23.3473 14.0001 23.8062 14.0001 27.4621C14.0001 31.1179 14.0153 31.5768 14.0816 33.0122C14.1469 34.4454 14.3741 35.4241 14.7069 36.2798C15.0506 37.165 15.5106 37.9168 16.2597 38.6646C17.0088 39.4123 17.7587 39.8727 18.6444 40.2173C19.5012 40.5501 20.4789 40.7774 21.912 40.8426C23.3482 40.9079 23.8063 40.9242 27.4622 40.9242C31.1181 40.9242 31.5769 40.909 33.0123 40.8426C34.4456 40.7774 35.4242 40.5501 36.28 40.2173C37.1651 39.8727 37.9154 39.4126 38.6647 38.6646C39.4139 37.9165 39.8728 37.165 40.2174 36.2798C40.5502 35.4241 40.7785 34.4453 40.8427 33.0122C40.908 31.5758 40.9232 31.1179 40.9232 27.4621C40.9232 23.8062 40.908 23.3473 40.8427 21.9119C40.7775 20.4787 40.5502 19.4995 40.2174 18.6443C39.8728 17.7592 39.4127 17.0088 38.6647 16.2596C37.9166 15.5103 37.1651 15.0505 36.281 14.7068C35.4242 14.374 34.4454 14.1457 33.0134 14.0815C31.578 14.0163 31.1191 14 27.4633 14C23.8074 14 23.3482 14.0152 21.912 14.0815Z" fill="white"/>
</svg>
