<svg width="108" height="117" viewBox="0 0 108 117" fill="none" xmlns="http://www.w3.org/2000/svg">
<g filter="url(#filter0_dd)">
<rect x="32" y="12.75" width="44" height="52.25" rx="4.125" fill="white"/>
<rect opacity="0.2" x="34.75" y="49.875" width="38.5" height="4.125" fill="#7E7E9F"/>
<rect opacity="0.2" x="44.375" y="58.125" width="19.25" height="4.125" fill="#7E7E9F"/>
<rect opacity="0.2" x="34.75" y="15.5" width="38.5" height="30.25" rx="2.75" fill="#7E7E9F"/>
<mask id="mask0" mask-type="alpha" maskUnits="userSpaceOnUse" x="34" y="15" width="40" height="31">
<rect x="34.75" y="15.5" width="38.5" height="30.25" rx="2.75" fill="white"/>
</mask>
<g mask="url(#mask0)">
<path opacity="0.2" fill-rule="evenodd" clip-rule="evenodd" d="M67.75 32C75.1832 32 79.7574 37.8708 87 45.75C81.0916 45.75 55.7973 45.75 48.5 45.75C54.7896 39.2612 60.3168 32 67.75 32Z" fill="#7E7E9F"/>
<path fill-rule="evenodd" clip-rule="evenodd" d="M40.25 29.25C48.096 29.25 53.86 37.1177 60.875 45.75C51.6707 45.75 29.381 45.75 21 45.75C27.7761 37.1177 32.404 29.25 40.25 29.25Z" fill="url(#paint0_linear)"/>
<path fill-rule="evenodd" clip-rule="evenodd" d="M55.375 29.25C57.6532 29.25 59.5 27.4032 59.5 25.125C59.5 22.8468 57.6532 21 55.375 21C53.0968 21 51.25 22.8468 51.25 25.125C51.25 27.4032 53.0968 29.25 55.375 29.25Z" fill="url(#paint1_linear)"/>
</g>
</g>
<defs>
<filter id="filter0_dd" x="0" y="0.75" width="108" height="116.25" filterUnits="userSpaceOnUse" color-interpolation-filters="sRGB">
<feFlood flood-opacity="0" result="BackgroundImageFix"/>
<feColorMatrix in="SourceAlpha" type="matrix" values="0 0 0 0 0 0 0 0 0 0 0 0 0 0 0 0 0 0 127 0"/>
<feOffset dy="8"/>
<feGaussianBlur stdDeviation="8"/>
<feColorMatrix type="matrix" values="0 0 0 0 0.0295189 0 0 0 0 0.137798 0 0 0 0 0.187773 0 0 0 0.1 0"/>
<feBlend mode="multiply" in2="BackgroundImageFix" result="effect1_dropShadow"/>
<feColorMatrix in="SourceAlpha" type="matrix" values="0 0 0 0 0 0 0 0 0 0 0 0 0 0 0 0 0 0 127 0"/>
<feOffset dy="20"/>
<feGaussianBlur stdDeviation="16"/>
<feColorMatrix type="matrix" values="0 0 0 0 0.0295189 0 0 0 0 0.137798 0 0 0 0 0.187773 0 0 0 0.06 0"/>
<feBlend mode="multiply" in2="effect1_dropShadow" result="effect2_dropShadow"/>
<feBlend mode="normal" in="SourceGraphic" in2="effect2_dropShadow" result="shape"/>
</filter>
<linearGradient id="paint0_linear" x1="21" y1="37.5" x2="60.875" y2="37.5" gradientUnits="userSpaceOnUse">
<stop stop-color="#9BAAFA"/>
<stop offset="1" stop-color="#367BF5"/>
</linearGradient>
<linearGradient id="paint1_linear" x1="51.25" y1="25.125" x2="59.5" y2="25.125" gradientUnits="userSpaceOnUse">
<stop stop-color="#F4977B"/>
<stop offset="1" stop-color="#F9567E"/>
</linearGradient>
</defs>
</svg>
