<svg width="171" height="116" viewBox="0 0 171 116" fill="none" xmlns="http://www.w3.org/2000/svg">
<g filter="url(#filter0_b)">
<rect width="171" height="115" rx="6" fill="white" fill-opacity="0.8"/>
</g>
<rect opacity="0.2" x="142.144" y="12.6939" width="1.06875" height="101.531" rx="0.534373" fill="#7E7E9F"/>
<rect opacity="0.2" x="91.9126" y="76.8189" width="1.06875" height="37.4063" rx="0.534373" fill="#7E7E9F"/>
<rect opacity="0.2" x="42.75" y="44.7564" width="1.06875" height="69.4688" rx="0.534376" fill="#7E7E9F"/>
<path opacity="0.2" fill-rule="evenodd" clip-rule="evenodd" d="M1.06362 92.7593C0.482018 92.86 0 92.3718 0 91.7816C0 91.1913 0.485891 90.7235 1.05556 90.569C2.77077 90.1037 4.56097 88.5034 6.59628 85.6768C7.84582 83.9415 9.12548 81.8567 10.9069 78.7267C11.2369 78.1468 11.5754 77.5472 12.0391 76.7224C12.1707 76.4881 12.3264 76.2109 12.6165 75.6945C12.8513 75.2766 13.0282 74.962 13.2025 74.6527C14.1639 72.9467 14.9008 71.6601 15.645 70.3981C24.0858 56.0855 31.7426 49.0316 42.75 49.0316C53.2265 49.0316 59.1599 51.0099 68.8945 56.3787C69.0206 56.4482 69.7721 56.8631 69.989 56.9827C78.7074 61.7878 83.7451 63.4876 92.4435 63.4597C101.409 63.431 107.901 58.1587 118.482 44.8918C118.924 44.3379 120.748 42.04 121.217 41.4517C122.275 40.1261 123.122 39.0808 123.94 38.0972C131.102 29.4822 136.393 25.5191 142.678 25.5191C147.229 25.5191 150.781 28.2483 153.668 33.3235C155.857 37.1701 157.491 41.8002 159.671 49.5435C159.95 50.5337 160.88 53.8848 161.008 54.3422C164.26 65.9629 166.596 71.0407 169.941 71.8821C170.514 72.026 171 72.4882 171 73.0785C171 73.6687 170.518 74.1579 169.936 74.0583C167.357 73.6165 165.284 71.5389 163.496 68.0218C161.971 65.0226 160.771 61.4252 158.95 54.9182C158.821 54.4571 157.891 51.1084 157.614 50.1229C153.142 34.2418 149.395 27.6566 142.678 27.6566C137.24 27.6566 132.363 31.31 125.584 39.4637C124.776 40.4346 123.938 41.4695 122.888 42.7849C122.421 43.3704 120.597 45.6681 120.153 46.2246C115.016 52.6658 111.732 56.3101 107.915 59.4097C102.941 63.4495 97.919 65.5797 92.4503 65.5972C83.321 65.6265 77.965 63.8193 68.9572 58.8547C68.7395 58.7347 67.9876 58.3196 67.8622 58.2504C58.4155 53.0403 52.8031 51.1691 42.75 51.1691C32.7387 51.1691 25.5742 57.7694 17.4862 71.4839C16.7503 72.7317 16.0198 74.0073 15.0647 75.7021C14.891 76.0104 14.7144 76.3243 14.4801 76.7414C14.1901 77.2576 14.0342 77.5352 13.9023 77.7698C13.437 78.5976 13.0969 79.2001 12.7646 79.7839C10.9484 82.9751 9.63559 85.1139 8.33089 86.9259C5.85739 90.361 3.55929 92.3273 1.06362 92.7593Z" fill="#7E7E9F"/>
<path fill-rule="evenodd" clip-rule="evenodd" d="M1.06181 92.7433C0.483409 92.861 0.00012207 92.3713 0.00012207 91.7811C0.00012207 91.1908 0.48994 90.722 1.0471 90.5271C2.71893 89.9424 4.5113 87.9661 6.54123 84.4965C7.79675 82.3505 9.08035 79.7766 10.8658 75.9155C11.1961 75.2012 11.5348 74.4628 11.9987 73.4472C12.1304 73.1588 12.2861 72.8176 12.5762 72.182C12.8109 71.6678 12.9878 71.2807 13.162 70.9002C14.1226 68.8022 14.8587 67.2204 15.6019 65.6693C19.4069 57.7284 22.7333 52.1195 26.5519 47.7898C31.3668 42.3304 36.6731 39.4123 42.7501 39.4123C48.7378 39.4123 53.8006 41.6015 58.4547 45.7934C61.9688 48.9586 64.6052 52.3938 69.3319 59.4255C69.4541 59.6074 70.1898 60.7029 70.4024 61.019C74.6794 67.3777 77.0854 70.5223 80.0956 73.2736C83.9006 76.7513 87.8689 78.5084 92.5153 78.4935C97.3023 78.4781 101.83 75.2309 106.443 68.8831C110.125 63.8151 113.341 57.7619 118.395 47.0092C118.839 46.0653 120.642 42.2116 121.1 41.2375C122.145 39.0155 122.98 37.2657 123.786 35.6191C130.967 20.9497 136.195 14.2967 142.678 14.2967C147.188 14.2967 150.738 16.6799 153.635 21.1279C155.835 24.5054 157.474 28.5634 159.66 35.3438C159.939 36.2094 160.869 39.1371 160.997 39.5362C164.251 49.6963 166.559 54.0806 169.939 54.8009C170.516 54.924 171 55.3877 171 55.978C171 56.5682 170.519 57.0564 169.935 56.9666C167.392 56.5749 165.318 54.7557 163.525 51.6751C161.99 49.0394 160.787 45.8865 158.961 40.1882C158.832 39.7851 157.903 36.86 157.626 35.9996C153.156 22.1357 149.443 16.4342 142.678 16.4342C137.417 16.4342 132.485 22.7109 125.706 36.5589C124.905 38.1938 124.075 39.9343 123.034 42.147C122.577 43.1187 120.774 46.9723 120.33 47.9185C115.219 58.7909 111.959 64.9276 108.172 70.1396C103.199 76.983 98.1377 80.613 92.5222 80.631C87.2988 80.6477 82.8309 78.6694 78.6535 74.8514C75.477 71.9481 72.9993 68.7098 68.6288 62.212C68.4156 61.8951 67.6797 60.7992 67.5579 60.6179C62.9278 53.7299 60.3654 50.3911 57.0242 47.3817C52.742 43.5247 48.1747 41.5498 42.7501 41.5498C32.8126 41.5498 25.6235 49.7013 17.5296 66.5929C16.7926 68.1308 16.0613 69.7024 15.1055 71.7901C14.9317 72.1697 14.7551 72.5561 14.5207 73.0696C14.2307 73.705 14.0748 74.0466 13.943 74.3352C13.4779 75.3536 13.1379 76.0948 12.8059 76.8127C10.9937 80.7316 9.68491 83.356 8.38618 85.5759C5.90804 89.8116 3.6127 92.2242 1.06181 92.7433Z" fill="#367BF5"/>
<path fill-rule="evenodd" clip-rule="evenodd" d="M43.2844 44.7563C45.9405 44.7563 48.0937 42.6031 48.0937 39.9469C48.0937 37.2908 45.9405 35.1375 43.2844 35.1375C40.6282 35.1375 38.475 37.2908 38.475 39.9469C38.475 42.6031 40.6282 44.7563 43.2844 44.7563Z" fill="#367BF5"/>
<path fill-rule="evenodd" clip-rule="evenodd" d="M92.4469 83.2312C95.1031 83.2312 97.2563 81.078 97.2563 78.4218C97.2563 75.7657 95.1031 73.6125 92.4469 73.6125C89.7908 73.6125 87.6376 75.7657 87.6376 78.4218C87.6376 81.078 89.7908 83.2312 92.4469 83.2312Z" fill="#367BF5"/>
<path fill-rule="evenodd" clip-rule="evenodd" d="M142.678 20.1753C145.334 20.1753 147.487 18.022 147.487 15.3659C147.487 12.7098 145.334 10.5565 142.678 10.5565C140.022 10.5565 137.869 12.7098 137.869 15.3659C137.869 18.022 140.022 20.1753 142.678 20.1753Z" fill="#367BF5"/>
<defs>
<filter id="filter0_b" x="-24" y="-24" width="219" height="163" filterUnits="userSpaceOnUse" color-interpolation-filters="sRGB">
<feFlood flood-opacity="0" result="BackgroundImageFix"/>
<feGaussianBlur in="BackgroundImage" stdDeviation="12"/>
<feComposite in2="SourceAlpha" operator="in" result="effect1_backgroundBlur"/>
<feBlend mode="normal" in="SourceGraphic" in2="effect1_backgroundBlur" result="shape"/>
</filter>
</defs>
</svg>
