<svg width="215" height="60" viewBox="0 0 215 60" fill="none" xmlns="http://www.w3.org/2000/svg">
<rect opacity="0.4" x="6" y="4" width="48" height="48" rx="6" fill="#78909C"/>
<path d="M76.2 41.272C74.4547 41.272 72.9133 40.898 71.576 40.15C70.2613 39.402 69.2413 38.348 68.516 36.988C67.7907 35.6053 67.428 34.0187 67.428 32.228V25.972C67.428 24.1813 67.7907 22.606 68.516 21.246C69.264 19.8633 70.3067 18.798 71.644 18.05C73.004 17.302 74.568 16.928 76.336 16.928H79.94C81.64 16.928 83.136 17.2907 84.428 18.016C85.72 18.7413 86.7173 19.7613 87.42 21.076C88.1453 22.368 88.508 23.8753 88.508 25.598H83.884C83.884 24.238 83.5213 23.15 82.796 22.334C82.0707 21.4953 81.1187 21.076 79.94 21.076H76.336C75.0667 21.076 74.0467 21.552 73.276 22.504C72.5053 23.4333 72.12 24.6573 72.12 26.176V32.024C72.12 33.5427 72.494 34.778 73.242 35.73C73.99 36.6593 74.976 37.124 76.2 37.124H79.872C81.0733 37.124 82.048 36.6593 82.796 35.73C83.5667 34.8007 83.952 33.5767 83.952 32.058H88.576C88.576 33.894 88.2133 35.5147 87.488 36.92C86.7627 38.3027 85.7427 39.3793 84.428 40.15C83.1133 40.898 81.5947 41.272 79.872 41.272H76.2ZM97.2622 41.272C95.8342 41.272 94.5649 41 93.4542 40.456C92.3662 39.8893 91.5162 39.096 90.9042 38.076C90.3149 37.056 90.0202 35.8773 90.0202 34.54V30.562C90.0202 29.2247 90.3262 28.046 90.9382 27.026C91.5502 25.9833 92.4002 25.1787 93.4882 24.612C94.5989 24.0453 95.8682 23.762 97.2962 23.762H100.356C101.784 23.762 103.042 24.0453 104.13 24.612C105.241 25.1787 106.102 25.9833 106.714 27.026C107.326 28.046 107.632 29.2247 107.632 30.562V34.54C107.632 35.8773 107.326 37.056 106.714 38.076C106.102 39.096 105.241 39.8893 104.13 40.456C103.042 41 101.773 41.272 100.322 41.272H97.2622ZM100.254 37.294C101.093 37.294 101.762 37.0107 102.26 36.444C102.759 35.8547 103.008 35.0953 103.008 34.166V30.868C103.008 29.9387 102.759 29.1907 102.26 28.624C101.762 28.0347 101.104 27.74 100.288 27.74H97.3642C96.5482 27.74 95.8909 28.0347 95.3922 28.624C94.8935 29.1907 94.6442 29.9387 94.6442 30.868V34.166C94.6442 35.0953 94.8935 35.8547 95.3922 36.444C95.8909 37.0107 96.5369 37.294 97.3302 37.294H100.254ZM116.77 41.272C115.342 41.272 114.072 41 112.962 40.456C111.874 39.8893 111.024 39.096 110.412 38.076C109.822 37.056 109.528 35.8773 109.528 34.54V30.562C109.528 29.2247 109.834 28.046 110.446 27.026C111.058 25.9833 111.908 25.1787 112.996 24.612C114.106 24.0453 115.376 23.762 116.804 23.762H119.864C121.292 23.762 122.55 24.0453 123.638 24.612C124.748 25.1787 125.61 25.9833 126.222 27.026C126.834 28.046 127.14 29.2247 127.14 30.562V34.54C127.14 35.8773 126.834 37.056 126.222 38.076C125.61 39.096 124.748 39.8893 123.638 40.456C122.55 41 121.28 41.272 119.83 41.272H116.77ZM119.762 37.294C120.6 37.294 121.269 37.0107 121.768 36.444C122.266 35.8547 122.516 35.0953 122.516 34.166V30.868C122.516 29.9387 122.266 29.1907 121.768 28.624C121.269 28.0347 120.612 27.74 119.796 27.74H116.872C116.056 27.74 115.398 28.0347 114.9 28.624C114.401 29.1907 114.152 29.9387 114.152 30.868V34.166C114.152 35.0953 114.401 35.8547 114.9 36.444C115.398 37.0107 116.044 37.294 116.838 37.294H119.762ZM135.563 41C133.546 41 132.061 40.5807 131.109 39.742C130.18 38.8807 129.715 37.5547 129.715 35.764V17.2H134.339V35.492C134.339 36.036 134.464 36.4327 134.713 36.682C134.963 36.9313 135.359 37.056 135.903 37.056H137.739V41H135.563ZM144.468 41.272C142.7 41.272 141.272 40.83 140.184 39.946C139.096 39.062 138.552 37.8947 138.552 36.444V35.186C138.552 33.758 139.118 32.6133 140.252 31.752C141.385 30.868 142.881 30.426 144.74 30.426H146.814C147.403 30.426 148.038 30.5053 148.718 30.664C149.398 30.8227 150.021 31.038 150.588 31.31V29.542C150.588 28.9753 150.395 28.522 150.01 28.182C149.647 27.8193 149.16 27.638 148.548 27.638H145.624C144.989 27.638 144.479 27.7853 144.094 28.08C143.708 28.3747 143.516 28.7713 143.516 29.27H139.028C139.028 27.6153 139.628 26.2893 140.83 25.292C142.054 24.272 143.652 23.762 145.624 23.762H148.548C150.542 23.762 152.152 24.2947 153.376 25.36C154.6 26.4027 155.212 27.7967 155.212 29.542V41H150.928V38.96C150.384 39.6627 149.715 40.2293 148.922 40.66C148.128 41.068 147.346 41.272 146.576 41.272H144.468ZM146.916 37.736C147.754 37.736 148.502 37.5207 149.16 37.09C149.817 36.6593 150.293 36.0813 150.588 35.356V34.778C150.225 34.506 149.715 34.2907 149.058 34.132C148.423 33.9733 147.743 33.894 147.018 33.894H144.876C144.332 33.894 143.89 34.03 143.55 34.302C143.21 34.574 143.04 34.9367 143.04 35.39V36.274C143.04 36.7047 143.221 37.056 143.584 37.328C143.969 37.6 144.468 37.736 145.08 37.736H146.916ZM158.271 24.034H162.555V25.87C163.031 25.2353 163.632 24.7253 164.357 24.34C165.105 23.9547 165.831 23.762 166.533 23.762H168.675C170.035 23.762 171.237 24.0453 172.279 24.612C173.322 25.156 174.127 25.9267 174.693 26.924C175.26 27.9213 175.543 29.066 175.543 30.358V34.166C175.543 35.5713 175.26 36.818 174.693 37.906C174.127 38.9713 173.333 39.7987 172.313 40.388C171.293 40.9773 170.115 41.272 168.777 41.272H166.567C165.933 41.272 165.275 41.1247 164.595 40.83C163.938 40.5353 163.371 40.1387 162.895 39.64V47.8H158.271V24.034ZM168.165 37.294C169.004 37.294 169.673 36.9767 170.171 36.342C170.67 35.7073 170.919 34.8687 170.919 33.826V30.698C170.919 29.814 170.659 29.1 170.137 28.556C169.639 28.012 168.97 27.74 168.131 27.74H166.057C165.4 27.74 164.777 28.012 164.187 28.556C163.598 29.0773 163.167 29.7573 162.895 30.596V33.962C163.009 34.9593 163.349 35.764 163.915 36.376C164.505 36.988 165.219 37.294 166.057 37.294H168.165ZM178.111 24.034H182.395V25.87C182.871 25.2353 183.471 24.7253 184.197 24.34C184.945 23.9547 185.67 23.762 186.373 23.762H188.515C189.875 23.762 191.076 24.0453 192.119 24.612C193.161 25.156 193.966 25.9267 194.533 26.924C195.099 27.9213 195.383 29.066 195.383 30.358V34.166C195.383 35.5713 195.099 36.818 194.533 37.906C193.966 38.9713 193.173 39.7987 192.153 40.388C191.133 40.9773 189.954 41.272 188.617 41.272H186.407C185.772 41.272 185.115 41.1247 184.435 40.83C183.777 40.5353 183.211 40.1387 182.735 39.64V47.8H178.111V24.034ZM188.005 37.294C188.843 37.294 189.512 36.9767 190.011 36.342C190.509 35.7073 190.759 34.8687 190.759 33.826V30.698C190.759 29.814 190.498 29.1 189.977 28.556C189.478 28.012 188.809 27.74 187.971 27.74H185.897C185.239 27.74 184.616 28.012 184.027 28.556C183.437 29.0773 183.007 29.7573 182.735 30.596V33.962C182.848 34.9593 183.188 35.764 183.755 36.376C184.344 36.988 185.058 37.294 185.897 37.294H188.005Z" fill="black" fill-opacity="0.87"/>
<g filter="url(#filter0_dd)">
<path d="M40.452 22.051C40.044 22.459 39.648 22.855 39.636 23.251C39.6 23.635 40.008 24.031 40.392 24.403C40.968 25.003 41.532 25.543 41.508 26.131C41.484 26.719 40.872 27.331 40.26 27.931L35.304 32.899L33.6 31.195L38.7 26.107L37.548 24.955L35.844 26.647L31.344 22.147L35.952 17.551C36.42 17.083 37.2 17.083 37.644 17.551L40.452 20.359C40.92 20.803 40.92 21.583 40.452 22.051ZM19.2 34.303L30.672 22.819L35.172 27.319L23.7 38.803H19.2V34.303Z" fill="white"/>
</g>
<defs>
<filter id="filter0_dd" x="0" y="0" width="60" height="60" filterUnits="userSpaceOnUse" color-interpolation-filters="sRGB">
<feFlood flood-opacity="0" result="BackgroundImageFix"/>
<feColorMatrix in="SourceAlpha" type="matrix" values="0 0 0 0 0 0 0 0 0 0 0 0 0 0 0 0 0 0 127 0"/>
<feOffset dy="1"/>
<feGaussianBlur stdDeviation="1"/>
<feColorMatrix type="matrix" values="0 0 0 0 0.0295189 0 0 0 0 0.137798 0 0 0 0 0.187773 0 0 0 0.24 0"/>
<feBlend mode="multiply" in2="BackgroundImageFix" result="effect1_dropShadow"/>
<feColorMatrix in="SourceAlpha" type="matrix" values="0 0 0 0 0 0 0 0 0 0 0 0 0 0 0 0 0 0 127 0"/>
<feOffset dy="2"/>
<feGaussianBlur stdDeviation="3"/>
<feColorMatrix type="matrix" values="0 0 0 0 0.0295189 0 0 0 0 0.137798 0 0 0 0 0.187773 0 0 0 0.16 0"/>
<feBlend mode="multiply" in2="effect1_dropShadow" result="effect2_dropShadow"/>
<feBlend mode="normal" in="SourceGraphic" in2="effect2_dropShadow" result="shape"/>
</filter>
</defs>
</svg>
