<svg width="72" height="72" viewBox="0 0 72 72" fill="none" xmlns="http://www.w3.org/2000/svg">
<rect width="72" height="72" rx="36" fill="#DCF7E3"/>
<path d="M52.2002 19.8003V42.3003C52.2002 43.9712 51.5364 45.5736 50.355 46.7551C49.1735 47.9365 47.571 48.6003 45.9002 48.6003C44.2293 48.6003 42.6269 47.9365 41.4454 46.7551C40.2639 45.5736 39.6002 43.9712 39.6002 42.3003C39.6002 40.6294 40.2639 39.027 41.4454 37.8455C42.6269 36.664 44.2293 36.0003 45.9002 36.0003C46.8722 36.0003 47.7902 36.2163 48.6002 36.6123V26.0463L30.6002 29.8803V45.9003C30.6002 47.5712 29.9364 49.1736 28.755 50.3551C27.5735 51.5365 25.971 52.2003 24.3002 52.2003C22.6293 52.2003 21.0269 51.5365 19.8454 50.3551C18.6639 49.1736 18.0002 47.5712 18.0002 45.9003C18.0002 44.2294 18.6639 42.627 19.8454 41.4455C21.0269 40.264 22.6293 39.6003 24.3002 39.6003C25.2722 39.6003 26.1902 39.8163 27.0002 40.2123V25.2003L52.2002 19.8003Z" fill="#069697"/>
</svg>
