<svg width="20" height="20" viewBox="0 0 20 20" fill="none" xmlns="http://www.w3.org/2000/svg">
<path d="M10.0002 7.22024C10.5306 7.22024 11.0394 7.43096 11.4144 7.80603C11.7895 8.1811 12.0002 8.68981 12.0002 9.22024C12.0002 9.75068 11.7895 10.2594 11.4144 10.6345C11.0394 11.0095 10.5306 11.2202 10.0002 11.2202C9.46978 11.2202 8.96107 11.0095 8.586 10.6345C8.21093 10.2594 8.00021 9.75068 8.00021 9.22024C8.00021 8.68981 8.21093 8.1811 8.586 7.80603C8.96107 7.43096 9.46978 7.22024 10.0002 7.22024V7.22024ZM10.0002 19.2202C8.05021 19.2202 6.22021 18.6602 4.69021 17.6902L8.00021 12.6902C8.60021 13.0302 9.28021 13.2202 10.0002 13.2202C10.7202 13.2202 11.4002 13.0302 12.0002 12.6902L15.3102 17.6902C13.7802 18.6602 11.9502 19.2202 10.0002 19.2202ZM0.000213623 9.22024C0.000213623 5.08024 2.50021 1.52024 6.11021 0.000244112L8.34021 5.58024C6.96021 6.22024 6.00021 7.60024 6.00021 9.22024H0.000213623ZM14.0002 9.22024C14.0002 7.60024 13.0402 6.22024 11.6602 5.58024L13.8902 0.000244112C17.5002 1.52024 20.0002 5.08024 20.0002 9.22024H14.0002Z" fill="#367BF5"/>
</svg>
