<svg width="72" height="72" viewBox="0 0 72 72" fill="none" xmlns="http://www.w3.org/2000/svg">
<rect width="72" height="72" rx="36" fill="#FEE4E2"/>
<path d="M22.8647 40.6847L21.5687 39.4067C20.1827 38.0027 20.1827 35.7347 21.5687 34.3307C23.0087 32.9087 25.2767 32.9087 26.6807 34.3307L31.3247 38.9567L38.9567 31.3247L34.3307 26.6807C32.9087 25.2767 32.9087 23.0087 34.3307 21.5687C35.7347 20.1827 38.0027 20.1827 39.4067 21.5687L40.6847 22.8647L50.8727 33.0527L52.1687 34.3307C53.5547 35.7347 53.5547 38.0027 52.1687 39.4067C50.7287 40.8287 48.4607 40.8287 47.0567 39.4067L42.4127 34.7807L34.7807 42.4127L39.4067 47.0567C40.8287 48.4607 40.8287 50.7287 39.4067 52.1687C38.0027 53.5547 35.7347 53.5547 34.3307 52.1687L33.0527 50.8727L22.8647 40.6847ZM20.9567 50.2247L22.8647 48.3167L20.3267 45.7787C19.6247 45.0767 19.6247 43.9427 20.3267 43.2407C21.0287 42.5387 22.1627 42.5387 22.8647 43.2407L30.4967 50.8727C31.1987 51.5747 31.1987 52.7087 30.4967 53.4107C29.7947 54.1127 28.6607 54.1127 27.9587 53.4107L25.4207 50.8727L23.5127 52.7807L20.9567 50.2247ZM50.2247 20.9567L52.7807 23.5127L50.8727 25.4207L53.4107 27.9587C54.1127 28.6607 54.1127 29.7947 53.4107 30.4967C52.7087 31.2167 51.5747 31.2167 50.8727 30.4967L43.2407 22.8647C42.5387 22.1627 42.5387 21.0287 43.2407 20.3267C43.9427 19.6247 45.0767 19.6247 45.7787 20.3267L48.3167 22.8647L50.2247 20.9567Z" fill="#EA3D2F"/>
</svg>
