<svg width="24" height="27" viewBox="0 0 24 27" fill="none" xmlns="http://www.w3.org/2000/svg">
<path d="M17.4002 17.6002H24.0002V19.4002H17.4002V21.5002L14.4002 18.5002L17.4002 15.5002V17.6002ZM21.0002 22.7002V20.6002L24.0002 23.6002L21.0002 26.6002V24.5002H14.4002V22.7002H21.0002ZM9.00021 5.60017C8.36369 5.60017 7.75325 5.34731 7.30316 4.89723C6.85307 4.44714 6.60021 3.83669 6.60021 3.20017C6.60021 2.56365 6.85307 1.9532 7.30316 1.50311C7.75325 1.05303 8.36369 0.800171 9.00021 0.800171C9.63673 0.800171 10.2472 1.05303 10.6973 1.50311C11.1474 1.9532 11.4002 2.56365 11.4002 3.20017C11.4002 3.83669 11.1474 4.44714 10.6973 4.89723C10.2472 5.34731 9.63673 5.60017 9.00021 5.60017ZM4.50021 9.68017L2.40021 10.5802V14.6002H0.000213623V8.96017L6.30021 6.38017C6.60021 6.26017 6.90021 6.20017 7.20021 6.20017C8.04021 6.20017 8.82021 6.62017 9.24021 7.34017L10.3802 9.26017C11.4602 11.0002 13.3802 12.2002 15.6002 12.2002V14.6002C12.9602 14.6002 10.6202 13.4002 9.06021 11.4802L8.34021 15.0802L10.8002 17.5402V26.6002H8.40021V19.4002L5.82021 17.0002L3.72021 26.6002H1.20021L4.50021 9.68017Z" fill="#367BF5"/>
</svg>
